<mxfile host="65bd71144e">
    <diagram id="Y5Y5It4pgEp3QDxbJxQu" name="第 1 页">
        <mxGraphModel dx="1320" dy="773" grid="1" gridSize="10" guides="1" tooltips="1" connect="1" arrows="1" fold="1" page="1" pageScale="1" pageWidth="850" pageHeight="1100" math="0" shadow="0">
            <root>
                <mxCell id="0"/>
                <mxCell id="1" parent="0"/>
                <mxCell id="2" value="" style="rounded=0;whiteSpace=wrap;html=1;fillColor=none;dashed=1;" parent="1" vertex="1">
                    <mxGeometry x="270" y="240" width="360" height="350" as="geometry"/>
                </mxCell>
                <mxCell id="3" value="AXI_User" style="text;strokeColor=none;align=center;fillColor=none;html=1;verticalAlign=middle;whiteSpace=wrap;rounded=0;dashed=1;" parent="1" vertex="1">
                    <mxGeometry x="270" y="210" width="60" height="30" as="geometry"/>
                </mxCell>
                <mxCell id="4" value="写数据通道生成" style="rounded=0;whiteSpace=wrap;html=1;dashed=1;fillColor=default;" parent="1" vertex="1">
                    <mxGeometry x="305" y="270" width="120" height="40" as="geometry"/>
                </mxCell>
                <mxCell id="5" value="写地址通道生成" style="rounded=0;whiteSpace=wrap;html=1;dashed=1;fillColor=default;" parent="1" vertex="1">
                    <mxGeometry x="305" y="325" width="120" height="40" as="geometry"/>
                </mxCell>
                <mxCell id="6" value="写响应检测" style="rounded=0;whiteSpace=wrap;html=1;dashed=1;fillColor=default;" parent="1" vertex="1">
                    <mxGeometry x="305" y="380" width="120" height="40" as="geometry"/>
                </mxCell>
                <mxCell id="9" value="MIG" style="rounded=0;whiteSpace=wrap;html=1;dashed=1;fillColor=none;" parent="1" vertex="1">
                    <mxGeometry x="480" y="275" width="120" height="280" as="geometry"/>
                </mxCell>
                <mxCell id="10" value="读数据通道生成" style="rounded=0;whiteSpace=wrap;html=1;dashed=1;fillColor=none;" parent="1" vertex="1">
                    <mxGeometry x="305" y="455" width="120" height="40" as="geometry"/>
                </mxCell>
                <mxCell id="11" value="读地址通道生成" style="rounded=0;whiteSpace=wrap;html=1;dashed=1;fillColor=none;" parent="1" vertex="1">
                    <mxGeometry x="305" y="510" width="120" height="40" as="geometry"/>
                </mxCell>
                <mxCell id="22" style="edgeStyle=none;rounded=0;html=1;exitX=1;exitY=0.5;exitDx=0;exitDy=0;dashed=1;dashPattern=1 1;strokeColor=default;" parent="1" source="12" target="4" edge="1">
                    <mxGeometry relative="1" as="geometry"/>
                </mxCell>
                <mxCell id="12" value="写FIFO(跨时钟域FIFO)" style="rounded=0;whiteSpace=wrap;html=1;dashed=1;fillColor=none;" parent="1" vertex="1">
                    <mxGeometry x="110" y="275" width="120" height="30" as="geometry"/>
                </mxCell>
                <mxCell id="13" value="" style="endArrow=classic;html=1;" parent="1" edge="1">
                    <mxGeometry width="50" height="50" relative="1" as="geometry">
                        <mxPoint x="20" y="290" as="sourcePoint"/>
                        <mxPoint x="110" y="290" as="targetPoint"/>
                    </mxGeometry>
                </mxCell>
                <mxCell id="14" value="写入数据" style="text;strokeColor=none;align=center;fillColor=none;html=1;verticalAlign=middle;whiteSpace=wrap;rounded=0;dashed=1;" parent="1" vertex="1">
                    <mxGeometry x="40" y="260" width="60" height="30" as="geometry"/>
                </mxCell>
                <mxCell id="15" value="读FIFO（跨时钟域FIFO）" style="rounded=0;whiteSpace=wrap;html=1;dashed=1;fillColor=none;" parent="1" vertex="1">
                    <mxGeometry x="100" y="515" width="120" height="30" as="geometry"/>
                </mxCell>
                <mxCell id="16" value="" style="endArrow=classic;html=1;exitX=0;exitY=0.5;exitDx=0;exitDy=0;" parent="1" source="15" edge="1">
                    <mxGeometry width="50" height="50" relative="1" as="geometry">
                        <mxPoint x="50" y="485" as="sourcePoint"/>
                        <mxPoint x="30" y="530" as="targetPoint"/>
                    </mxGeometry>
                </mxCell>
                <mxCell id="17" value="读出数据" style="text;strokeColor=none;align=center;fillColor=none;html=1;verticalAlign=middle;whiteSpace=wrap;rounded=0;dashed=1;" parent="1" vertex="1">
                    <mxGeometry x="40" y="500" width="60" height="30" as="geometry"/>
                </mxCell>
                <mxCell id="18" value="写入数据量及读控制" style="rounded=0;whiteSpace=wrap;html=1;dashed=1;fillColor=none;" parent="1" vertex="1">
                    <mxGeometry x="90" y="400" width="120" height="60" as="geometry"/>
                </mxCell>
                <mxCell id="19" value="" style="endArrow=classic;html=1;exitX=0.5;exitY=1;exitDx=0;exitDy=0;entryX=0;entryY=0.5;entryDx=0;entryDy=0;strokeColor=default;rounded=0;" parent="1" source="18" target="10" edge="1">
                    <mxGeometry width="50" height="50" relative="1" as="geometry">
                        <mxPoint x="150" y="480" as="sourcePoint"/>
                        <mxPoint x="200" y="430" as="targetPoint"/>
                        <Array as="points">
                            <mxPoint x="150" y="475"/>
                        </Array>
                    </mxGeometry>
                </mxCell>
                <mxCell id="20" value="" style="endArrow=classic;html=1;exitX=0;exitY=0.5;exitDx=0;exitDy=0;entryX=1;entryY=0.5;entryDx=0;entryDy=0;" parent="1" source="11" target="15" edge="1">
                    <mxGeometry width="50" height="50" relative="1" as="geometry">
                        <mxPoint x="250" y="650" as="sourcePoint"/>
                        <mxPoint x="300" y="600" as="targetPoint"/>
                    </mxGeometry>
                </mxCell>
                <mxCell id="21" value="" style="endArrow=classic;html=1;rounded=0;strokeColor=default;exitX=0.5;exitY=1;exitDx=0;exitDy=0;entryX=0;entryY=0.5;entryDx=0;entryDy=0;dashed=1;dashPattern=12 12;" parent="1" source="14" target="18" edge="1">
                    <mxGeometry width="50" height="50" relative="1" as="geometry">
                        <mxPoint x="110" y="380" as="sourcePoint"/>
                        <mxPoint x="160" y="330" as="targetPoint"/>
                        <Array as="points">
                            <mxPoint x="70" y="430"/>
                        </Array>
                    </mxGeometry>
                </mxCell>
                <mxCell id="23" value="" style="endArrow=classic;html=1;rounded=0;dashed=1;dashPattern=1 1;strokeColor=default;entryX=0;entryY=0.5;entryDx=0;entryDy=0;" parent="1" target="5" edge="1">
                    <mxGeometry width="50" height="50" relative="1" as="geometry">
                        <mxPoint x="240" y="290" as="sourcePoint"/>
                        <mxPoint x="260" y="320" as="targetPoint"/>
                        <Array as="points">
                            <mxPoint x="240" y="345"/>
                        </Array>
                    </mxGeometry>
                </mxCell>
            </root>
        </mxGraphModel>
    </diagram>
    <diagram id="5fQqk-cJtkmbtLY6SJZe" name="每个模块的关键信号说明">
        <mxGraphModel dx="1320" dy="773" grid="1" gridSize="10" guides="1" tooltips="1" connect="1" arrows="1" fold="1" page="1" pageScale="1" pageWidth="850" pageHeight="1100" math="0" shadow="0">
            <root>
                <mxCell id="0"/>
                <mxCell id="1" parent="0"/>
                <mxCell id="CP6TgfosUyrjVYmkiuH4-1" value="写FIFO" style="rounded=0;whiteSpace=wrap;html=1;dashed=1;fillColor=none;" parent="1" vertex="1">
                    <mxGeometry x="60" y="50" width="120" height="30" as="geometry"/>
                </mxCell>
                <mxCell id="CP6TgfosUyrjVYmkiuH4-2" value="输入的关键控制信号：&lt;br&gt;1、复位，保证初始地址一定正确&lt;br&gt;2、使能，打开使能后整体才开始工作&lt;br&gt;&lt;br&gt;输出的关键控制信号：&lt;br&gt;1、数据量大于域值标志（用于AXI开始burst）&lt;br&gt;" style="text;strokeColor=none;align=left;fillColor=none;html=1;verticalAlign=middle;whiteSpace=wrap;rounded=0;dashed=1;dashPattern=1 1;strokeWidth=4;" parent="1" vertex="1">
                    <mxGeometry x="60" y="90" width="290" height="80" as="geometry"/>
                </mxCell>
                <mxCell id="4LHh48joktztHIyCn1FA-1" value="写入数据量及读控制" style="rounded=0;whiteSpace=wrap;html=1;dashed=1;fillColor=none;" parent="1" vertex="1">
                    <mxGeometry x="500" y="730" width="120" height="60" as="geometry"/>
                </mxCell>
                <mxCell id="4LHh48joktztHIyCn1FA-2" value="关键控制信号：&lt;br&gt;1、复位，保证初始地址一定正确&lt;br&gt;2、使能，打开使能后整体才开始工作&lt;br&gt;3、DDR及FIFO存够一定数据量后发送给AXI读通道的读使能" style="text;strokeColor=none;align=left;fillColor=none;html=1;verticalAlign=middle;whiteSpace=wrap;rounded=0;dashed=1;dashPattern=1 1;strokeWidth=4;" parent="1" vertex="1">
                    <mxGeometry x="500" y="780" width="350" height="80" as="geometry"/>
                </mxCell>
                <mxCell id="2NWbRt48MkIHp793HLQV-1" value="写数据通道生成" style="rounded=0;whiteSpace=wrap;html=1;dashed=1;fillColor=none;" parent="1" vertex="1">
                    <mxGeometry x="60" y="200" width="120" height="40" as="geometry"/>
                </mxCell>
                <mxCell id="2NWbRt48MkIHp793HLQV-2" value="关键控制信号：&lt;br&gt;1、发送给写缓存FIFO的读使能" style="text;strokeColor=none;align=left;fillColor=none;html=1;verticalAlign=middle;whiteSpace=wrap;rounded=0;dashed=1;dashPattern=1 1;strokeWidth=4;" parent="1" vertex="1">
                    <mxGeometry x="60" y="240" width="290" height="60" as="geometry"/>
                </mxCell>
                <mxCell id="703_ABPNdcmk_6YEJSQH-1" value="写地址通道生成" style="rounded=0;whiteSpace=wrap;html=1;dashed=1;fillColor=default;" parent="1" vertex="1">
                    <mxGeometry x="60" y="310" width="120" height="40" as="geometry"/>
                </mxCell>
                <mxCell id="703_ABPNdcmk_6YEJSQH-2" value="关键控制信号：&lt;br&gt;1、生成&lt;span style=&quot;background-color: rgb(30, 30, 30); color: rgb(212, 212, 212); font-family: &amp;quot;Droid Sans Mono&amp;quot;, &amp;quot;monospace&amp;quot;, monospace; font-size: 14px;&quot;&gt;start_single_burst_write信号给写数据通道，表示一次写突发开始&lt;/span&gt;" style="text;strokeColor=none;align=left;fillColor=none;html=1;verticalAlign=middle;whiteSpace=wrap;rounded=0;dashed=1;dashPattern=1 1;strokeWidth=4;" parent="1" vertex="1">
                    <mxGeometry x="60" y="350" width="290" height="60" as="geometry"/>
                </mxCell>
            </root>
        </mxGraphModel>
    </diagram>
</mxfile>